# xmcd
#
# Track frame offsets: 
#        150
#        2210
#        8955
#        11755
#        13677
#        15462
#        26122
#        30230
#        32162
#        36167
#        42687
#        44127
#        45957
#        59435
#        64185
#        66242
#        67460
#        71120
#        81965
#        86360
#        89667
#        90952
#        94122
#        99212
#        104232
#        111465
#        113670
#        116040
#        119079
#        135217
#        149117
#
# Disc length: 2188 seconds
#
# Revision: 2
# Processed by: cddbd v1.5.2PL0 Copyright (c) Steve Scherf et al.
# Submitted via: ExactAudioCopy v0.99pb5
#
DISCID=bf088a1f
DTITLE=YAHAMA - S2
DYEAR=1900
DGENRE=
TTITLE0=宇宙太空1
TTITLE1=宇宙太空2
TTITLE2=妖精婆婆1
TTITLE3=妖精婆婆2
TTITLE4=妖精婆婆3
TTITLE5=威尼斯狂歡節
TTITLE6=蟋蟀的婚禮
TTITLE7=早安1
TTITLE8=早安2
TTITLE9=鄉村提琴手
TTITLE10=哥倆好1
TTITLE11=哥倆好2
TTITLE12=風笛之舞
TTITLE13=小小的雪崩
TTITLE14=大象1
TTITLE15=大象2
TTITLE16=大象3
TTITLE17=頑皮的小松鼠
TTITLE18=彌賽特
TTITLE19=可愛的小貓1
TTITLE20=可愛的小貓2
TTITLE21=可愛的小貓3
TTITLE22=可愛的小貓4
TTITLE23=海盜王之船1
TTITLE24=海盜王之船2
TTITLE25=海盜王之船3
TTITLE26=海盜王之船4
TTITLE27=海盜王之船5
TTITLE28=被遺忘的小黃傘
TTITLE29=笑一笑握握手
TTITLE30=我們是地球的孩子
EXTD=
EXTT0=
EXTT1=
EXTT2=
EXTT3=
EXTT4=
EXTT5=
EXTT6=
EXTT7=
EXTT8=
EXTT9=
EXTT10=
EXTT11=
EXTT12=
EXTT13=
EXTT14=
EXTT15=
EXTT16=
EXTT17=
EXTT18=
EXTT19=
EXTT20=
EXTT21=
EXTT22=
EXTT23=
EXTT24=
EXTT25=
EXTT26=
EXTT27=
EXTT28=
EXTT29=
EXTT30=
PLAYORDER=
